<?xml version="1.0" encoding="utf-8"?>
<!-- Generator: Adobe Illustrator 19.2.0, SVG Export Plug-In . SVG Version: 6.00 Build 0)  -->
<svg version="1.1" id="Layer_1" xmlns="http://www.w3.org/2000/svg" xmlns:xlink="http://www.w3.org/1999/xlink" x="0px" y="0px"
	 viewBox="0 0 255 61" style="enable-background:new 0 0 255 61;" xml:space="preserve">
<style type="text/css">
	.st0{fill:#1F9DD9;}
</style>
<path class="st0" d="M32,25.4C25.7,23.7,19.3,23,19,19.8c0-2.5,3-3,4.9-3c1.4,0,3,0.4,4.1,1.1c1.1,0.7,1.9,1.9,1.6,3.5h13.1
	c-0.4-10.9-9-14.6-18.7-14.6c-9.2,0-18,4.4-18,14.8c0,9,8.1,10.9,15.2,13.1c6.5,1.9,8.8,2.6,9.5,4.2l13.9-1.1
	C44.4,30,38.2,27,32,25.4"/>
<path class="st0" d="M88.5,23.1c0-6.4-4.2-15.3-16.4-15.3H49v29.6l35.3-2.8C86.9,32,88.5,28.3,88.5,23.1 M68,28.4h-5.3v-9.2h6.2
	c3.4,0,6.5,0.2,6.5,4.4C75.4,28.3,71.5,28.4,68,28.4"/>
<polygon class="st0" points="100.8,7.8 91.1,34.1 104.3,33 107.5,22.8 107.7,22.8 110.5,32.5 122.9,31.6 114.2,7.8 "/>
<path class="st0" d="M174.6,20.7c0-8.5-6.7-12.9-14.6-12.9h-26.3v22.9l39-3C173.9,25.6,174.6,23.1,174.6,20.7 M154.6,27.4h-7.2v-8.8
	h6.5c5.3,0,6.9,1.6,6.9,4.4C160.8,27,157.3,27.4,154.6,27.4"/>
<polygon class="st0" points="203.3,19.3 215.8,19.3 215.8,7.8 176.9,7.8 176.9,19.3 189.4,19.3 189.4,26.3 203.3,25.3 "/>
<polygon class="st0" points="228.5,7.8 222.7,23.8 247.2,21.9 242.1,7.8 "/>
<path class="st0" d="M20.6,57.2c10.1,0,20.6-3.7,20.6-15.5c0-0.4,0-0.5,0-0.9l-13.9,1.1c0.2,0.4,0.4,0.7,0.4,1.2
	c0,3.4-3.5,4.1-5.6,4.1c-2.6,0-5.6-0.5-6.5-3.4H1.5C3.1,55.6,16,57.2,20.6,57.2"/>
<path class="st0" d="M59.4,56.1V42.5h8.1c5.6,0,10.4-1.6,13.6-4.8l-35.5,2.8v15.5H59.4z"/>
<polygon class="st0" points="94.8,56.1 96.8,49.8 111.1,49.8 112.8,56.1 127.1,56.1 119.5,34.8 107,35.8 108.2,40.1 99.8,40.1 
	101,36.2 87.9,37.3 80.9,56.1 "/>
<path class="st0" d="M130.3,56.1H144V40.4h7.4c5.5,0,5.8,4.4,6.2,8.8c0.2,2.3,0.4,4.6,1.1,6.9h13.8c-1.2-2.1-1.2-7.4-1.6-9.7
	c-0.5-5.6-2.8-9.7-6.5-11.3c2.3-0.9,3.9-2.5,4.9-4.4l-39.2,3L130.3,56.1L130.3,56.1z"/>
<polygon class="st0" points="199.8,56.1 199.8,28.4 186,29.7 186,56.1 "/>
<path class="st0" d="M222.5,56.1l1.9-6.4h14.3l1.9,6.4H255l-11.3-31L219.4,27l-10.6,29.1H222.5L222.5,56.1z M231.9,26.3L231.9,26.3
	l4.1,13.8h-8.5L231.9,26.3z"/>
</svg>
